<?xml version="1.0" encoding="UTF-8" standalone="no"?>
<!-- Created with Inkscape (http://www.inkscape.org/) -->
<svg
   xmlns:dc="http://purl.org/dc/elements/1.1/"
   xmlns:cc="http://web.resource.org/cc/"
   xmlns:rdf="http://www.w3.org/1999/02/22-rdf-syntax-ns#"
   xmlns:svg="http://www.w3.org/2000/svg"
   xmlns="http://www.w3.org/2000/svg"
   xmlns:sodipodi="http://inkscape.sourceforge.net/DTD/sodipodi-0.dtd"
   xmlns:inkscape="http://www.inkscape.org/namespaces/inkscape"
   sodipodi:docname="staircase_samplebalustrade.svg"
   sodipodi:docbase="D:\PROFILES\Bartlettc\My Documents\Object Collection\StairCase"
   inkscape:version="0.40+cvs"
   sodipodi:version="0.32"
   id="svg2"
   height="297mm"
   width="210mm">
  <defs
     id="defs3" />
  <sodipodi:namedview
     inkscape:window-y="-4"
     inkscape:window-x="-4"
     inkscape:window-height="749"
     inkscape:window-width="1024"
     inkscape:current-layer="layer1"
     inkscape:document-units="px"
     inkscape:cy="908.17993"
     inkscape:cx="443.90110"
     inkscape:zoom="0.80000000"
     inkscape:pageshadow="2"
     inkscape:pageopacity="0.0"
     borderopacity="1.0"
     bordercolor="#666666"
     pagecolor="#ffffff"
     id="base" />
  <metadata
     id="metadata4">
    <rdf:RDF
       id="RDF5">
      <cc:Work
         id="Work6"
         rdf:about="">
        <dc:format
           id="format7">image/svg+xml</dc:format>
        <dc:type
           rdf:resource="http://purl.org/dc/dcmitype/StillImage"
           id="type9" />
      </cc:Work>
    </rdf:RDF>
  </metadata>
  <g
     id="layer1"
     inkscape:groupmode="layer"
     inkscape:label="Layer 1">
    <path
       sodipodi:nodetypes="ccccccccccccccccc"
       id="StairCase_Baluster"
       d="M 324.46764,206.32728 L 230.46764,206.36859 L 232.46764,388.40990 C 240.46764,388.40990 260.28298,386.82027 261.78298,405.08917 C 261.78298,415.85807 262.21417,403.33216 262.21417,417.08216 C 270.96417,417.08216 288.18892,424.90289 289.18892,438.67179 C 289.18892,453.94069 264.89189,454.75442 265.59833,460.72850 C 265.80477,472.20258 295.75774,458.44343 295.76120,500.00715 C 295.76467,557.57087 234.40924,551.28795 232.13052,610.16538 C 231.10179,656.54282 288.87010,650.33062 289.55477,682.80471 C 289.73942,698.52879 272.10526,694.91568 272.10526,699.79068 C 272.35526,705.41568 290.45502,698.97939 290.48026,720.65867 C 290.13052,744.21293 243.53992,748.51720 235.28992,748.51720 C 235.91492,765.14220 234.87705,754.50074 235.22111,763.84037 C 234.94018,780.55500 206.90577,780.06446 206.90577,780.06446 L 205.90577,949.39708 L 325.13841,949.80745"
       style="fill:none;fill-opacity:0.75000000;fill-rule:evenodd;stroke:#000000;stroke-width:1.8063613px;stroke-linecap:butt;stroke-linejoin:miter;stroke-opacity:1.0000000" />
    <path
       sodipodi:nodetypes="ccccccccccccccccc"
       id="path1293"
       d="M 326.55445,354.62210 L 421.55445,354.66341 L 420.55445,388.70472 C 412.55445,388.70472 392.73911,387.11509 391.23911,405.38399 C 391.23911,416.15289 390.80792,403.62698 390.80792,417.37698 C 382.05792,417.37698 364.83317,425.19771 363.83317,438.96661 C 363.83317,454.23551 388.13020,455.04924 387.42376,461.02332 C 387.21732,472.49740 357.26435,458.73825 357.26089,500.30197 C 357.25742,557.86569 418.61285,551.58277 420.89157,610.46020 C 421.92030,656.83764 364.15199,650.62544 363.46732,683.09953 C 363.28267,698.82361 380.91683,695.21050 380.91683,700.08550 C 380.66683,705.71050 362.56707,699.27421 362.54183,720.95349 C 362.89157,744.50775 409.48217,748.81202 417.73217,748.81202 C 417.10717,765.43702 418.14504,754.79556 417.80098,764.13519 C 418.08191,780.84982 446.11632,780.35928 446.11632,780.35928 L 446.11632,803.69190 L 325.88368,804.10227"
       style="stroke-miterlimit:4.0000000;stroke-dasharray:5.4190840,1.8063613;stroke-dashoffset:0.00000000;fill:none;fill-opacity:0.75000000;fill-rule:evenodd;stroke:#bfbfbf;stroke-width:1.8063613;stroke-linecap:butt;stroke-linejoin:miter;stroke-opacity:1.0000000" />
    <path
       sodipodi:nodetypes="cccccccccccccc"
       id="StairCase_HandRail"
       d="M 223.00000,280.37500 C 214.00000,282.37500 215.00000,305.37500 216.00000,318.37500 C 217.00000,331.37500 210.00000,335.37500 206.00000,339.37500 C 202.00000,343.37500 203.00000,351.37500 205.00000,356.37500 C 207.00000,365.37500 226.00000,360.37500 226.00000,360.37500 L 226.50000,350.87500 L 426.18750,351.37500 L 426.68750,360.87500 C 426.68750,360.87501 445.68750,365.87500 447.68750,356.87500 C 449.68750,351.87501 450.68750,343.87500 446.68750,339.87500 C 442.68750,335.87501 435.68750,331.87500 436.68750,318.87500 C 437.68750,305.87501 438.68750,282.87500 429.68750,280.87500 C 421.69248,277.87688 327.24147,270.88379 325.00000,270.50000 C 322.75000,270.87500 231.00000,277.37500 223.00000,280.37500 z "
       style="stroke-opacity:1.0000000;stroke-linejoin:miter;stroke-linecap:butt;stroke-width:1.0000000px;stroke:#0000fe;fill-rule:evenodd;fill-opacity:0.75000000;fill:none" />
    <path
       sodipodi:nodetypes="ccccccccccccccccc"
       id="StairCase_Stringer"
       d="M 192.06250,806.09375 L 191.56250,818.65625 C 191.56251,818.65625 178.32552,819.39137 179.34375,837.84375 C 180.36197,856.29612 179.85027,857.02828 174.25000,860.71875 C 168.64972,864.40925 168.65625,863.65625 168.65625,863.65625 L 169.15625,879.90625 L 206.96094,879.91406 L 206.36328,1017.9180 L 446.16797,1018.9258 L 446.57031,879.92969 L 484.37500,879.93750 L 484.87500,863.68750 C 484.87500,863.68750 484.88154,864.44050 479.28125,860.75000 C 473.68098,857.05953 473.16928,856.32737 474.18750,837.87500 C 475.20573,819.42262 461.96876,818.65625 461.96875,818.65625 L 461.46875,806.12500 L 192.06250,806.09375 z "
       style="fill:none;fill-opacity:0.75000000;fill-rule:evenodd;stroke:#ff0000;stroke-width:1.2260113px;stroke-linecap:butt;stroke-linejoin:miter;stroke-opacity:1.0000000" />
    <path
       style="fill:none;fill-opacity:0.75000000;fill-rule:evenodd;stroke:#00f900;stroke-width:1.0000000px;stroke-linecap:butt;stroke-linejoin:miter;stroke-opacity:1.0000000"
       d="M 177.00000,258.37500 C 177.00000,258.37500 174.25000,264.62500 171.50000,267.62500 C 168.00000,271.62500 164.00000,273.37500 161.00000,273.37500 L 161.00000,359.37500 L 195.00000,359.37500 L 195.00000,782.37500 C 196.50000,782.62500 195.90000,785.32500 195.90000,789.32500 C 195.90000,794.07500 195.25000,794.37500 194.25000,794.37500 L 161.00000,794.37500 L 162.00000,1033.3750 L 491.50000,1033.3125 L 492.50000,794.31250 L 459.25000,794.31250 C 458.25000,794.31250 457.60000,794.01250 457.60000,789.26250 C 457.60000,785.26250 457.00000,782.56250 458.50000,782.31250 L 458.50000,359.31250 L 492.50000,359.31250 L 492.50000,273.31250 C 489.50000,273.31250 485.50000,271.56250 482.00000,267.56250 C 479.25000,264.56250 476.50000,258.31250 476.50000,258.31250 L 325.00000,234.37500 L 177.00000,258.37500 z "
       id="StairCase_NewelPost"
       sodipodi:nodetypes="cccccccccccccccccccccc" />
  </g>
</svg>
